<svg id="Layer_1" data-name="Layer 1" xmlns="http://www.w3.org/2000/svg" viewBox="0 0 42.36 42.65"><defs><style>.cls-1{fill:#7b666b;}.cls-2{fill:#7e97bb;}.cls-3{fill:#817e92;}.cls-4{fill:#8090b2;}.cls-5{fill:#9da7bd;}.cls-6{fill:#7f85a1;}</style></defs><title>leftpad</title><path class="cls-1" d="M63.72,39.29a25.18,25.18,0,0,1,.49,3.08,24.44,24.44,0,0,1,0,4.84,19.19,19.19,0,1,1-7.71-18.42A14.8,14.8,0,0,1,62.22,36l.3.32.28.25.09,0,1.72.33a19.16,19.16,0,0,0-10.67-11c-12.61-5.6-26.37,1.42-29.54,14.91-.08.34-.2.67-.3,1,0,2.31,0,4.63,0,7a9.94,9.94,0,0,1,.64,2.74,23.38,23.38,0,0,0,6.73,10.05,21.21,21.21,0,0,0,32.95-7.14c.18-.36.35-.73.52-1.09a22.17,22.17,0,0,0,1.52-7.89c-.15-.94-.14-3-.31-4.53a23.32,23.32,0,0,0-1.53-4c-1-.69-.57-.56-2.09-.61" transform="translate(-24.09 -23.93)"/><path class="cls-2" d="M52.11,29.19a18.31,18.31,0,0,0-21.37,5.89A23.59,23.59,0,0,0,27.13,43c-.06,2.93.1,5.82,1.51,8.49,2.73,0,3-.2,3.34-2.78a2.28,2.28,0,0,1,1.48-2.07l-.29-.31-.3-.27c-1.32-1.92-1.29-2.2.32-3.83.67-.68,1.32-1.38,2-2,.38-.35.68-1.1,1.28-.83s.22,1,.3,1.52h2.54c.62,0,1.09.16,1.08.91l0,.6c.37.15.76.46,1.11.42,2.85-.38,5.7.18,8.55-.11l.06-.94c0-.77.45-.89,1.05-.88H54c.07-.53-.28-1.26.27-1.52s.89.47,1.27.82c.67.6,1.28,1.26,1.91,1.9a3.51,3.51,0,0,1,1.37,3l-.59.31-.31.31c-.1,1.32.45,2.57.29,3.89-.35,3-.33,3,2.47,3.71,2.53-3.93,3.05-8.25,2.43-12.78l-.63-1.77M48.26,39.93a10.19,10.19,0,0,1-5.74,0c0-.81,0-1.62,0-2.42a1.15,1.15,0,0,0-.77-1.16c-1.18-.49-1.39-1.2-.58-2.1C42.21,33.1,43.35,32,44.47,31a1,1,0,0,1,1.37-.14c1.32,1.15,2.65,2.3,3.86,3.57.62.66.67,1.61-.45,1.88-1,.24-1,.82-1,1.56Z" transform="translate(-24.09 -23.93)"/><path class="cls-3" d="M63.12,40.54c.62,4.53.1,8.85-2.43,12.78a9.13,9.13,0,0,1-2.09,3.1C54.19,60.78,49,63,42.72,62.11c-6.65-.91-11.26-4.6-14.08-10.64-1.41-2.67-1.57-5.56-1.51-8.49,0-.41,0-.81,0-1.21A17.86,17.86,0,0,1,42,26.24a17.83,17.83,0,0,1,18.78,8.43c.31.5.47,1.13,1.09,1.4l.39-.1a14.8,14.8,0,0,0-5.77-7.18,19.23,19.23,0,1,0,7.71,18.42,24.44,24.44,0,0,0,0-4.84C64.17,41.65,62.8,38.33,63.12,40.54Z" transform="translate(-24.09 -23.93)"/><path class="cls-3" d="M62.52,36.29l.28.25Z" transform="translate(-24.09 -23.93)"/><path class="cls-4" d="M28.64,51.47c2.82,6,7.43,9.73,14.08,10.64C49,63,54.19,60.78,58.6,56.42a9.13,9.13,0,0,0,2.09-3.1c-2.8-.73-2.82-.73-2.47-3.71.16-1.32-.39-2.57-.29-3.89-.94.9-1.87,1.81-2.83,2.69-.25.23-.78.79-.92.25-.44-1.68-1.71-1-2.68-1.09s-1.48-.36-1.43-1.41,0-2.3,0-3.46c-2.85.29-5.7-.27-8.55.11-.35,0-.74-.27-1.11-.42a30.45,30.45,0,0,0,0,3.31c.13,1.49-.48,2-1.9,1.84s-1.95.43-1.76,1.8c-.19.23-.39.26-.58,0L35.89,49l-.3-.29-.31-.31-.3-.29h0l-.29-.29h0l-.28-.29,0,0-.28-.28,0,0-.29-.29h0l-.29-.29v0A2.28,2.28,0,0,0,32,48.69C31.6,51.27,31.37,51.46,28.64,51.47Zm16,6.36v0l-.32-.34a11.82,11.82,0,0,0-2.4-2.39l-.62-.32,0,0L41,54.5l0,0s-.08-.07-.07-.1a.8.8,0,0,1,0-.21l-.28-.62c-.13-1.18.63-1.24,1.48-1.18.56-.86.21-1.83.31-2.74.07-1.2,1-1,1.66-.89,1.35.31,3.06-1,4.07.87l0,2.76c.85,0,1.8-.16,1.78,1.17-1.14,1.7-2.95,2.75-4.17,4.37a.71.71,0,0,1-.93.2Z" transform="translate(-24.09 -23.93)"/><path class="cls-5" d="M61.9,37.64c.9-.11-.13-1.06-.07-1.57-.62-.27-.78-.9-1.09-1.4A17.83,17.83,0,0,0,42,26.24,17.86,17.86,0,0,0,27.15,41.77c0,.4,0,.8,0,1.21a23.59,23.59,0,0,1,3.61-7.9,18.05,18.05,0,0,1,21.37-5.89C60.71,32.68,61.9,37.64,61.9,37.64Z" transform="translate(-24.09 -23.93)"/><path class="cls-6" d="M48.26,39.93V37.82c0-.74,0-1.32,1-1.56,1.12-.27,1.07-1.22.45-1.88-1.21-1.27-2.54-2.42-3.86-3.57a1,1,0,0,0-1.37.14c-1.12,1.09-2.26,2.15-3.31,3.31-.81.9-.6,1.61.58,2.1a1.15,1.15,0,0,1,.77,1.16c0,.8,0,1.61,0,2.42Z" transform="translate(-24.09 -23.93)"/><path class="cls-6" d="M50.09,42.7c0,1.16,0,2.31,0,3.46s.42,1.37,1.43,1.41,2.24-.59,2.68,1.09c.14.54.67,0,.92-.25,1-.88,1.89-1.79,2.83-2.69l.31-.31.59-.31a3.51,3.51,0,0,0-1.37-3c-.63-.64-1.24-1.3-1.91-1.9-.38-.35-.67-1.11-1.27-.82s-.2,1-.27,1.52c0,.69-.45.91-1.08.9l-2.78,0Z" transform="translate(-24.09 -23.93)"/><path class="cls-6" d="M36.78,49.34c-.19-1.37.35-2,1.76-1.8s2-.35,1.9-1.84a30.45,30.45,0,0,1,0-3.31c0-.2,0-.4,0-.6-.85,0-1.69,0-2.53,0-.63,0-1.07-.19-1.09-.91-.08-.52.27-1.26-.3-1.52s-.9.48-1.28.83c-.7.65-1.35,1.35-2,2-1.61,1.63-1.64,1.91-.32,3.83l.3.27.29.31v0l.29.29h0l.29.29,0,0,.28.28,0,0,.28.29h0l.29.29h0l.3.29.31.31.3.29.31.29Z" transform="translate(-24.09 -23.93)"/><path class="cls-3" d="M50.15,41.76l2.78,0c.63,0,1-.21,1.08-.9H51.2C50.6,40.87,50.11,41,50.15,41.76Z" transform="translate(-24.09 -23.93)"/><path class="cls-3" d="M36.79,40.87c0,.72.46.92,1.09.91.84,0,1.68,0,2.53,0,0-.75-.46-.92-1.08-.91Z" transform="translate(-24.09 -23.93)"/><path class="cls-5" d="M48.26,39.93H42.52A10.19,10.19,0,0,0,48.26,39.93Z" transform="translate(-24.09 -23.93)"/><path class="cls-4" d="M58.83,45.1l-.59.31Z" transform="translate(-24.09 -23.93)"/><path class="cls-4" d="M33.17,46.31l-.3-.27Z" transform="translate(-24.09 -23.93)"/><path class="cls-6" d="M40.73,53.59l.28.62,0,.31,0,0,.32.32,0,0,.62.32a11.82,11.82,0,0,1,2.4,2.39c.11.11.22.22.32.34v0l.31.32a.71.71,0,0,0,.93-.2c1.22-1.62,3-2.67,4.17-4.37-.85,0-1.86.25-1.78-1.17,0-.92,0-1.84,0-2.76l-5.73,0c-.1.91.25,1.88-.31,2.74C42.33,53.58,41.57,53.64,40.73,53.59Z" transform="translate(-24.09 -23.93)"/><path class="cls-3" d="M42.52,49.67l5.73,0c-1-1.86-2.72-.56-4.07-.87C43.54,48.64,42.59,48.47,42.52,49.67Z" transform="translate(-24.09 -23.93)"/><path class="cls-3" d="M48.27,52.41c-.08,1.42.93,1.17,1.78,1.17C50.07,52.25,49.12,52.41,48.27,52.41Z" transform="translate(-24.09 -23.93)"/><path class="cls-3" d="M40.73,53.59c.84,0,1.6,0,1.48-1.18C41.36,52.35,40.6,52.41,40.73,53.59Z" transform="translate(-24.09 -23.93)"/><path class="cls-2" d="M36.78,49.34H36.2C36.39,49.6,36.59,49.57,36.78,49.34Z" transform="translate(-24.09 -23.93)"/><path class="cls-5" d="M41.93,55.12l-.62-.32Z" transform="translate(-24.09 -23.93)"/><path class="cls-2" d="M34.66,47.84l-.28-.29Z" transform="translate(-24.09 -23.93)"/><path class="cls-2" d="M35,48.14l-.29-.29Z" transform="translate(-24.09 -23.93)"/><path class="cls-2" d="M35.28,48.44l-.3-.29Z" transform="translate(-24.09 -23.93)"/><path class="cls-2" d="M34.06,47.23l-.29-.29Z" transform="translate(-24.09 -23.93)"/><path class="cls-2" d="M35.89,49l-.3-.29Z" transform="translate(-24.09 -23.93)"/><path class="cls-5" d="M41,54.52l0-.31a.8.8,0,0,0,0,.21S41,54.49,41,54.52Z" transform="translate(-24.09 -23.93)"/><path class="cls-5" d="M41.33,54.82,41,54.5Z" transform="translate(-24.09 -23.93)"/><path class="cls-5" d="M44.65,57.85c-.1-.12-.21-.23-.32-.34C44.44,57.62,44.55,57.73,44.65,57.85Z" transform="translate(-24.09 -23.93)"/><path class="cls-5" d="M45,58.15l-.31-.32Z" transform="translate(-24.09 -23.93)"/><path class="cls-2" d="M33.76,46.93l-.29-.29Z" transform="translate(-24.09 -23.93)"/><path class="cls-2" d="M34.36,47.53l-.28-.28Z" transform="translate(-24.09 -23.93)"/><path class="cls-2" d="M58.83,34.54l.22.15c.11-.24-.13-.13-.19-.19Z" transform="translate(-24.09 -23.93)"/><polygon class="cls-2" points="31.45 7.54 31.36 7.48 31.41 7.57 31.45 7.54"/><path class="cls-3" d="M61.83,36.07l1.29,4.47,1.09,1.83s-.51-5.11-2-6.4S61.83,36.07,61.83,36.07Z" transform="translate(-24.09 -23.93)"/><path class="cls-2" d="M52.11,29.19s8,2,10.38,9.58" transform="translate(-24.09 -23.93)"/></svg>