<svg id="Layer_1" data-name="Layer 1" xmlns="http://www.w3.org/2000/svg" viewBox="0 0 42.41 42.71"><defs><style>.cls-1{fill:#af533b;}.cls-2{fill:#cf6d4d;}.cls-3{fill:#ee7856;}.cls-4{fill:#e67652;}.cls-5{fill:#f48169;}.cls-6{fill:#bb593b;}</style></defs><title>rightpad</title><path class="cls-1" d="M66.13,45.16C66.84,34.63,57.69,23.73,45,23.74a21.36,21.36,0,0,0,.06,42.71C57.47,66.48,66.81,55.72,66.13,45.16ZM45.31,63.41A19.2,19.2,0,1,1,45.08,25c10.72.06,18.94,8,19.1,19A18.91,18.91,0,0,1,45.31,63.41Z" transform="translate(-23.76 -23.74)"/><path class="cls-2" d="M45.31,63.41A18.91,18.91,0,0,0,64.18,44C64,33,55.8,25.07,45.08,25a19.2,19.2,0,1,0,.23,38.4Zm17.79-20a16.8,16.8,0,0,1-2.49,9.94c-3.93,6.09-9.54,9.11-16.83,8.85a2.76,2.76,0,0,1-1.52-.28,6.52,6.52,0,0,1-2.91-.66A18.18,18.18,0,0,1,26.87,44a19,19,0,0,1,.06-2.27A18.61,18.61,0,0,1,42,26C52.69,24.17,63.08,32.61,63.1,43.39Z" transform="translate(-23.76 -23.74)"/><path class="cls-3" d="M43.78,62.18c7.29.26,12.9-2.76,16.83-8.85a16.8,16.8,0,0,0,2.49-9.94c-.81-3.24-1.85-6.34-4.11-9-4.5-5.21-10.19-7.4-16.86-6.31S30.59,33.24,28,39.76c-.53,1.38-.67,2.84-1.16,4.21A18.18,18.18,0,0,0,39.35,61.24a6.52,6.52,0,0,0,2.91.66,9.39,9.39,0,0,0-2.81-1.41c-4.1-1.68-7-4.56-7.87-9-.52-2.69.44-6.13,4-5.67-.2-.72-.8-.6-1.32-.62-1.06,0-1.79-.43-1.93-1.58l.24-.54h0c.64-1.55,2-.63,3-.9A5.69,5.69,0,0,1,37.38,38l.35-.32h0l.31-.31h0l.31-.31h0l.31-.31h0l.31-.31h0c1.1-1.85,3-2.14,4.85-2.46a13.63,13.63,0,0,1,0-1.81c.08-.61.33-1.29,1-1.27a1.32,1.32,0,0,1,1.29,1.27c.06.6,0,1.21,0,1.81A7.07,7.07,0,0,1,51,36.13h0A2.07,2.07,0,0,1,52.55,38h0l.43.32a5,5,0,0,1,1.39,3.91c1,.36,2.41-.66,3,.93h0l.26.26c.19,1.36-.59,1.77-1.75,1.86-.56,0-1.26-.2-1.51.62,2.82,0,4.19,1.43,4.23,4.26A9.24,9.24,0,0,1,57.15,55c-2.67,4.47-6.82,6.33-11.82,6.65C44.76,61.63,44.07,61.4,43.78,62.18Z" transform="translate(-23.76 -23.74)"/><path class="cls-4" d="M43.78,62.18c.29-.78,1-.55,1.55-.58,5-.32,9.15-2.18,11.82-6.65a9.24,9.24,0,0,0,1.44-4.86c0-2.83-1.41-4.24-4.23-4.26a12.21,12.21,0,0,1-3.65,6C49.62,53.44,47.94,53.8,46.2,54c-.15.91.37,2.34-1.14,2.34S43.92,55,43.77,54a7.57,7.57,0,0,1-1.6-.33c-1.33-.57-2.89-.84-3.52-2.43l-.89-.88-.33-.32L35.6,45.83c-3.58-.46-4.54,3-4,5.67.85,4.43,3.77,7.31,7.87,9a9.39,9.39,0,0,1,2.81,1.41A2.76,2.76,0,0,0,43.78,62.18Z" transform="translate(-23.76 -23.74)"/><path class="cls-5" d="M26.87,44c.49-1.37.63-2.83,1.16-4.21,2.56-6.52,7.3-10.52,14.1-11.63S54.49,29.23,59,34.44c2.26,2.61,3.3,5.71,4.11,9C63.08,32.61,52.69,24.17,42,26A18.61,18.61,0,0,0,26.93,41.7,19,19,0,0,0,26.87,44Z" transform="translate(-23.76 -23.74)"/><path class="cls-2" d="M43.77,54c.15,1-.08,2.33,1.29,2.34s1-1.43,1.14-2.34a.8.8,0,0,1,.69-.67,26.06,26.06,0,0,0,3.82-1.49,12.21,12.21,0,0,0,3.65-6c.25-.82,1-.58,1.51-.62,1.16-.09,1.94-.5,1.75-1.86l-.26-.26h0c-.91-.62-2.3.31-3-.93A5,5,0,0,0,53,38.26l-.43-.32h0c-.66-.48-1.37-.93-1.52-1.83h0c-1.52-.55-3-1.1-4.55-1.67-.14-.06-.2-.32-.3-.49,0-.6,0-1.21,0-1.81a1.32,1.32,0,0,0-1.29-1.27c-.71,0-1,.66-1,1.27a13.63,13.63,0,0,0,0,1.81c-1.38,1.28-3.31,1.48-4.85,2.46h0l-.31.31h0l-.31.31h0l-.31.31h0l-.31.31h0l-.35.32a5.69,5.69,0,0,0-1.77,4.24c-.75,1.19-2.12.29-3,.9h0l-.24.54c.14,1.15.87,1.56,1.93,1.58.52,0,1.12-.1,1.32.62l1.83,4.22.33.32.89.88a18.56,18.56,0,0,0,4.55,2.14A.75.75,0,0,1,43.77,54Zm-5.44-6.37v0L38,47l-.29-1.16c.28-1.26,1.51-.35,2.09-.92h0l.3-.31c0-.41,0-.83,0-1.24l-.28-.58h0c-.81-.16-1.8.45-2.42-.54A7.75,7.75,0,0,1,42,36.78c1.06-.46,1.82-.45,2,1,.1.65.39,1.36,1.21,1.29s1-.74,1-1.44c0-1.09.56-1.37,1.45-1a7.89,7.89,0,0,1,4.49,4.2c.36.85.4,1.48-.82,1.4-.69-.05-1,.51-1.5.9l.32,1.79,1.62.33c.33.07.78,0,.48.61l-.29,1.47-.32.36,0,0c0,.44-.1.82-.62.92h0a.68.68,0,0,1-.71.61.61.61,0,0,0-.2.19C49.46,51,47.3,51.93,46.19,51l0-1.57-.28-.28h0c-.63-.41-1.25-.13-1.87,0-.39.57-.22,1.22-.27,1.83-.09.32-.25.53-.61.54-1.4.05-4.16-2.15-4.52-3.6v0Z" transform="translate(-23.76 -23.74)"/><path class="cls-6" d="M38.92,36.43c1.54-1,3.47-1.18,4.85-2.46C41.9,34.29,40,34.58,38.92,36.43Z" transform="translate(-23.76 -23.74)"/><path class="cls-6" d="M46.19,34c.1.17.16.43.3.49,1.51.57,3,1.12,4.55,1.67A7.07,7.07,0,0,0,46.19,34Z" transform="translate(-23.76 -23.74)"/><path class="cls-6" d="M32.57,43.1c.92-.61,2.29.29,3-.9C34.59,42.47,33.21,41.55,32.57,43.1Z" transform="translate(-23.76 -23.74)"/><path class="cls-6" d="M54.35,42.17c.73,1.24,2.12.31,3,.93C56.76,41.51,55.34,42.53,54.35,42.17Z" transform="translate(-23.76 -23.74)"/><path class="cls-6" d="M51,36.12c.15.9.86,1.35,1.52,1.83A2.07,2.07,0,0,0,51,36.12Z" transform="translate(-23.76 -23.74)"/><path class="cls-6" d="M32.35,43.63l.24-.54Z" transform="translate(-23.76 -23.74)"/><path class="cls-6" d="M37.38,38l.35-.32Z" transform="translate(-23.76 -23.74)"/><path class="cls-6" d="M52.53,37.94l.43.32Z" transform="translate(-23.76 -23.74)"/><path class="cls-6" d="M37.72,37.65l.31-.31Z" transform="translate(-23.76 -23.74)"/><path class="cls-6" d="M38,37.34l.31-.31Z" transform="translate(-23.76 -23.74)"/><path class="cls-6" d="M38.32,37l.31-.31Z" transform="translate(-23.76 -23.74)"/><path class="cls-6" d="M38.62,36.74l.31-.31Z" transform="translate(-23.76 -23.74)"/><path class="cls-6" d="M57.36,43.09l.26.26Z" transform="translate(-23.76 -23.74)"/><path class="cls-3" d="M43.77,54a.75.75,0,0,0-.57-.62,18.56,18.56,0,0,1-4.55-2.14c.63,1.59,2.19,1.86,3.52,2.43A7.57,7.57,0,0,0,43.77,54Z" transform="translate(-23.76 -23.74)"/><path class="cls-3" d="M50.71,51.85a26.06,26.06,0,0,1-3.82,1.49.8.8,0,0,0-.69.67C47.94,53.8,49.62,53.44,50.71,51.85Z" transform="translate(-23.76 -23.74)"/><path class="cls-3" d="M37.76,50.37l-.33-.32Z" transform="translate(-23.76 -23.74)"/><path class="cls-4" d="M50.11,49.35a.61.61,0,0,1,.2-.19l.71-.61h0a1.33,1.33,0,0,1,.62-.92l0,0,.32-.36c.1-.49.2-1,.29-1.47-.81,0-1.75.18-2.1-.94-.11-.59-.21-1.19-.32-1.79a21.42,21.42,0,0,0-3.3-.3l0,.57c.08,1.14-.32,1.88-1.57,1.84s-1.49-.82-1.4-1.85v-.54l-3.33.28c0,.09,0,.18-.05.27,0,.41,0,.83,0,1.24l-.3.31h0c-.28,1.27-1.3.82-2.09.92.1.39.19.77.29,1.16l.31.67v0l.31.32v0c1.48,1.41,3,2.82,5.13,3.06.05-.61-.12-1.26.27-1.83.81-1.2,1.15-1.2,1.87,0h0l.28.28,0,1.57A9.11,9.11,0,0,0,50.11,49.35Z" transform="translate(-23.76 -23.74)"/><path class="cls-3" d="M46.5,42.8a21.42,21.42,0,0,1,3.3.3c.45-.39.81-1,1.5-.9,1.22.08,1.18-.55.82-1.4a7.89,7.89,0,0,0-4.49-4.2c-.89-.38-1.46-.1-1.45,1,0,.7-.2,1.38-1,1.44s-1.11-.64-1.21-1.29c-.2-1.41-1-1.42-2-1a7.75,7.75,0,0,0-4.51,5.47c.84,0,1.77-.35,2.42.55h0l.33.31,3.33-.28.27,0,0,0C44.65,41.53,45.29,41.53,46.5,42.8Z" transform="translate(-23.76 -23.74)"/><path class="cls-6" d="M43.76,51c-2.17-.24-3.65-1.65-5.13-3.06.36,1.45,3.12,3.65,4.52,3.6C43.51,51.53,43.67,51.32,43.76,51Z" transform="translate(-23.76 -23.74)"/><path class="cls-6" d="M50.11,49.35A9.11,9.11,0,0,1,46.19,51C47.3,51.93,49.46,51,50.11,49.35Z" transform="translate(-23.76 -23.74)"/><path class="cls-3" d="M37.74,45.83c.79-.1,1.81.35,2.09-.92C39.25,45.48,38,44.57,37.74,45.83Z" transform="translate(-23.76 -23.74)"/><path class="cls-3" d="M50.12,44.89c.35,1.12,1.29.89,2.1.94.3-.57-.15-.54-.48-.61Z" transform="translate(-23.76 -23.74)"/><path class="cls-6" d="M39.86,42.8c-.65-.9-1.58-.51-2.42-.55C38.06,43.25,39.05,42.64,39.86,42.8Z" transform="translate(-23.76 -23.74)"/><path class="cls-6" d="M45.9,49.17c-.72-1.2-1.06-1.2-1.87,0C44.65,49,45.27,48.76,45.9,49.17Z" transform="translate(-23.76 -23.74)"/><path class="cls-6" d="M51.63,47.64a1.33,1.33,0,0,0-.62.92C51.53,48.46,51.62,48.08,51.63,47.64Z" transform="translate(-23.76 -23.74)"/><path class="cls-6" d="M51,48.55l-.71.61A.68.68,0,0,0,51,48.55Z" transform="translate(-23.76 -23.74)"/><path class="cls-6" d="M40.17,43.1l-.33-.31.28.58C40.14,43.28,40.15,43.19,40.17,43.1Z" transform="translate(-23.76 -23.74)"/><path class="cls-6" d="M38.34,47.66,38,47C38.13,47.21,38.24,47.43,38.34,47.66Z" transform="translate(-23.76 -23.74)"/><path class="cls-6" d="M38.64,48l-.31-.32Z" transform="translate(-23.76 -23.74)"/><path class="cls-6" d="M46.16,49.44l-.28-.28Z" transform="translate(-23.76 -23.74)"/><path class="cls-3" d="M39.84,44.92l.3-.31Z" transform="translate(-23.76 -23.74)"/><path class="cls-6" d="M51.93,47.3l-.32.36Z" transform="translate(-23.76 -23.74)"/><path class="cls-2" d="M43.5,43.36c-.09,1,.21,1.81,1.4,1.85s1.65-.7,1.57-1.83a2.26,2.26,0,0,0-2.72-.58l0,0Z" transform="translate(-23.76 -23.74)"/><path class="cls-6" d="M43.75,42.8a2.26,2.26,0,0,1,2.72.58l0-.58C45.29,41.53,44.65,41.53,43.75,42.8Z" transform="translate(-23.76 -23.74)"/><path class="cls-6" d="M43.5,43.36l.27-.58-.27,0Z" transform="translate(-23.76 -23.74)"/></svg>